<svg xmlns="http://www.w3.org/2000/svg" height="512" viewBox="0 0 512 512" width="512" aria-hidden="true">
  <!-- primary: #0f766e, light: #14b8a6, dark: #134e4a, accent: #ccfbf1 -->
  <rect fill="#fff" height="152.83" rx="15.98" width="199.91" x="133.52" y="4.28"/>
  <path d="m317.45 161.39h-167.95a20.28 20.28 0 0 1 -20.26-20.26v-120.87a20.28 20.28 0 0 1 20.26-20.26h167.95a20.28 20.28 0 0 1 20.26 20.26v120.87a20.28 20.28 0 0 1 -20.26 20.26zm-167.95-152.84a11.72 11.72 0 0 0 -11.7 11.7v120.88a11.72 11.72 0 0 0 11.7 11.7h167.95a11.72 11.72 0 0 0 11.7-11.7v-120.87a11.72 11.72 0 0 0 -11.7-11.7z" fill="#134e4a"/>
  <path d="m135.11 241.83c-31.93 0-76.8-15.67-95-41.92l-30.32-43.83v73.79a91.11 91.11 0 0 0 91.1 91.13h34.22z" fill="#0d9488"/>
  <path d="m135.11 325.25h-34.22a94.94 94.94 0 0 1 -34.57-6.46 4.28 4.28 0 0 1 3.1-8 86.44 86.44 0 0 0 31.46 5.88h29.94v-70.67c-33.05-1.31-76-17.43-94.22-43.68l-22.53-32.55v60.1a87.23 87.23 0 0 0 35.42 70 4.28 4.28 0 0 1 -5.07 6.89 95.82 95.82 0 0 1 -38.9-76.87v-73.81a4.28 4.28 0 0 1 7.79-2.43l30.34 43.83c17.14 24.75 60.82 40.08 91.46 40.08a4.28 4.28 0 0 1 4.28 4.28v79.16a4.28 4.28 0 0 1 -4.28 4.25z" fill="#134e4a"/>
  <path d="m29.58 303.25a59.36 59.36 0 0 0 59.36 59.36h46.17l-9.22-27.67a46.35 46.35 0 0 0 -44-31.69z" fill="#2dd4bf"/>
  <path d="m135.11 366.89h-46.17a63.71 63.71 0 0 1 -63.64-63.64 4.28 4.28 0 0 1 4.28-4.25h52.34a50.56 50.56 0 0 1 48 34.61l9.22 27.67a4.28 4.28 0 0 1 -4.06 5.63zm-101.11-59.36a55.16 55.16 0 0 0 54.92 50.81h40.24l-7.35-22a42 42 0 0 0 -39.91-28.76z" fill="#134e4a"/>
  <path d="m102.13 290.06v39.58a39.58 39.58 0 0 1 -39.58 39.58v98.94a39.58 39.58 0 0 0 39.58 39.58h112.13a138.51 138.51 0 0 0 138.52-138.53v-92.34a66 66 0 0 0 -66-66h-105.5a79.15 79.15 0 0 0 -79.15 79.19z" fill="#0f766e"/>
  <path d="m214.26 512h-31.4a4.28 4.28 0 0 1 0-8.55h31.4c74 0 134.24-60.22 134.24-134.24v-70.58a4.28 4.28 0 1 1 8.55 0v70.58c0 78.73-64.05 142.79-142.79 142.79zm-55.38 0h-56.75a43.9 43.9 0 0 1 -43.85-43.85v-98.94a4.28 4.28 0 0 1 4.28-4.28 35.34 35.34 0 0 0 35.3-35.3v-39.57a4.28 4.28 0 0 1 8.55 0v39.58a43.92 43.92 0 0 1 -39.58 43.65v94.87a35.34 35.34 0 0 0 35.3 35.3h56.75a4.28 4.28 0 0 1 0 8.55zm-55.88-229.32a4.28 4.28 0 0 1 -4.24-4.9 83.45 83.45 0 0 1 82.53-71.15h105.53a70.24 70.24 0 0 1 70.18 67.88 4.28 4.28 0 0 1 -8.55.28 61.41 61.41 0 0 0 -61.65-59.61h-105.52c-36.85 0-68.7 27.45-74.07 63.84a4.28 4.28 0 0 1 -4.21 3.66z" fill="#134e4a"/>
  <path d="m128.51 336.23a19.79 19.79 0 0 1 -19.79-19.79v-6.6h39.58v6.6a19.79 19.79 0 0 1 -19.79 19.79z" fill="#fff"/>
  <path d="m128.51 340.51a24.09 24.09 0 0 1 -24.06-24.06v-6.6a4.28 4.28 0 0 1 4.28-4.28h39.57a4.28 4.28 0 0 1 4.28 4.28v6.6a24.09 24.09 0 0 1 -24.07 24.06zm-15.51-26.39v2.32a15.51 15.51 0 0 0 31 0v-2.32z" fill="#134e4a"/>
  <path d="m220.86 336.23a19.79 19.79 0 0 1 -19.79-19.79v-6.6h39.58v6.6a19.79 19.79 0 0 1 -19.79 19.79z" fill="#fff"/>
  <path d="m220.86 340.51a24.09 24.09 0 0 1 -24.07-24.06v-6.6a4.28 4.28 0 0 1 4.28-4.28h39.58a4.28 4.28 0 0 1 4.28 4.28v6.6a24.09 24.09 0 0 1 -24.07 24.06zm-15.51-26.38v2.32a15.51 15.51 0 0 0 31 0v-2.32z" fill="#134e4a"/>
  <path d="m62.56 468.15h151.7a0 0 0 0 1 0 0v7.61a32 32 0 0 1 -32 32h-87.74a32 32 0 0 1 -32-32v-7.61a0 0 0 0 1 0 0z" fill="#0f766e"/>
  <path d="m182.3 512h-87.78a36.28 36.28 0 0 1 -36.24-36.24v-7.61a4.28 4.28 0 0 1 4.28-4.28h151.7a4.28 4.28 0 0 1 4.28 4.28v7.61a36.28 36.28 0 0 1 -36.24 36.24zm-115.47-39.57v3.33a27.72 27.72 0 0 0 27.69 27.69h87.78a27.72 27.72 0 0 0 27.7-27.69v-3.33z" fill="#134e4a"/>
  <path d="m161.49 309.85h-66a33 33 0 0 1 33-33 33 33 0 0 1 33 33z" fill="#0d9488"/>
  <path d="m161.49 314.12h-66a4.28 4.28 0 0 1 -4.28-4.28 37.26 37.26 0 0 1 74.51 0 4.28 4.28 0 0 1 -4.23 4.28zm-61.36-8.55h56.77a28.7 28.7 0 0 0 -56.77 0z" fill="#134e4a"/>
  <path d="m253.84 309.85h-66a33 33 0 0 1 33-33 33 33 0 0 1 33 33z" fill="#0d9488"/>
  <path d="m253.84 314.12h-66a4.28 4.28 0 0 1 -4.28-4.28 37.26 37.26 0 0 1 74.51 0 4.28 4.28 0 0 1 -4.23 4.28zm-61.36-8.55h56.77a28.7 28.7 0 0 0 -56.77 0z" fill="#134e4a"/>
  <path d="m199.42 481.34h-133.57a56.07 56.07 0 0 1 -56.06-56.07 56.07 56.07 0 0 1 56.07-56.07h133.56a56.07 56.07 0 0 1 56.07 56.07 56.07 56.07 0 0 1 -56.07 56.07z" fill="#2dd4bf"/>
  <path d="m199.42 485.62h-133.57a60.34 60.34 0 0 1 0-120.69h133.57a60.34 60.34 0 1 1 0 120.69zm-133.57-112.13a51.79 51.79 0 1 0 0 103.58h133.57a51.79 51.79 0 1 0 0-103.58z" fill="#134e4a"/>
  <circle cx="59.26" cy="410.31" fill="#0d9488" r="9.89"/>
  <path d="m59.26 424.48a14.17 14.17 0 1 1 14.17-14.17 14.19 14.19 0 0 1 -14.17 14.17zm0-19.79a5.62 5.62 0 1 0 5.62 5.62 5.62 5.62 0 0 0 -5.62-5.62z" fill="#134e4a"/>
  <circle cx="158.2" cy="410.31" fill="#0d9488" r="9.89"/>
  <path d="m158.2 424.48a14.17 14.17 0 1 1 14.17-14.17 14.19 14.19 0 0 1 -14.17 14.17zm0-19.79a5.62 5.62 0 1 0 5.62 5.62 5.62 5.62 0 0 0 -5.62-5.62z" fill="#134e4a"/>
  <path d="m327.63 321c50.32 0 97.7-40.79 97.7-91.11v-73.81l-37 53.51c-14 20.19-43.57 32.24-68.13 32.24l-.2.17a55.71 55.71 0 0 0 -.18 79h7.83z" fill="#0d9488"/>
  <path d="m327.63 325.25h-7.83a4.28 4.28 0 0 1 -3-1.25 60 60 0 0 1 -7.24-76.1 4.28 4.28 0 0 1 7.08 4.81 51.46 51.46 0 0 0 5 64h6c49.77 0 93.43-40.57 93.43-86.83v-60.1l-29.27 42.22c-11.48 16.58-33.75 29.23-58.14 33a4.28 4.28 0 1 1 -1.31-8.45c21.81-3.38 42.38-14.93 52.41-29.42l37-53.51a4.28 4.28 0 0 1 7.79 2.43v73.79c0 25.19-11.15 49.19-31.38 67.59-19.38 17.69-45.11 27.82-70.54 27.82z" fill="#134e4a"/>
  <path d="m425.33 309.85a59.36 59.36 0 0 1 -59.33 59.36h-46.2l9.2-27.67a46.35 46.35 0 0 1 44-31.69z" fill="#2dd4bf"/>
  <path d="m366 373.49h-46.2a4.28 4.28 0 0 1 -4.06-5.63l9.26-27.68a50.56 50.56 0 0 1 48-34.61h52.34a4.28 4.28 0 0 1 4.28 4.28 63.71 63.71 0 0 1 -63.62 63.64zm-40.24-8.55h40.24a55.16 55.16 0 0 0 54.92-50.81h-47.92a42 42 0 0 0 -39.91 28.76z" fill="#134e4a"/>
  <circle cx="375.86" cy="362.61" fill="#ccfbf1" r="32.98"/>
  <path d="m375.86 399.87a37.26 37.26 0 1 1 37.26-37.26 37.3 37.3 0 0 1 -37.26 37.26zm0-66a28.7 28.7 0 1 0 28.7 28.7 28.73 28.73 0 0 0 -28.7-28.66z" fill="#134e4a"/>
  <circle cx="375.86" cy="362.61" fill="#0f766e" r="13.19"/>
  <g fill="#134e4a">
    <path d="m375.86 380.08a17.47 17.47 0 1 1 17.47-17.47 17.49 17.49 0 0 1 -17.47 17.47zm0-26.38a8.91 8.91 0 1 0 8.91 8.91 8.92 8.92 0 0 0 -8.91-8.91z"/>
    <path d="m304.66 32.53h-143.84a4.28 4.28 0 1 1 0-8.55h143.84a4.28 4.28 0 1 1 0 8.55z"/>
    <path d="m304.66 56.5h-40a4.28 4.28 0 1 1 0-8.55h40a4.28 4.28 0 1 1 0 8.55zm-63.93 0h-79.91a4.28 4.28 0 1 1 0-8.55h79.91a4.28 4.28 0 1 1 0 8.55z"/>
    <path d="m304.66 80.48h-87.9a4.28 4.28 0 1 1 0-8.55h87.9a4.28 4.28 0 1 1 0 8.55zm-111.88 0h-32a4.28 4.28 0 1 1 0-8.55h32a4.28 4.28 0 1 1 0 8.55z"/>
    <path d="m307.33 104.45h-146.51a4.28 4.28 0 1 1 0-8.55h146.51a4.28 4.28 0 1 1 0 8.55z"/>
    <path d="m275.36 128.42h-114.54a4.28 4.28 0 0 1 0-8.55h114.54a4.28 4.28 0 1 1 0 8.55z"/>
    <path d="m377.91 492.82q-3.25 0-6.54-.16a4.28 4.28 0 0 1 .43-8.54c66.2 3.29 122.81-47.86 126.14-114.12a4.28 4.28 0 0 1 8.54.43c-3.48 68.78-60.48 122.39-128.57 122.39z"/>
    <path d="m377.89 465.14q-2.55 0-5.13-.13a4.28 4.28 0 0 1 .21-8.55h.22a92.7 92.7 0 0 0 97.11-87.82 4.28 4.28 0 1 1 8.54.43 101.27 101.27 0 0 1 -100.95 96.07z"/>
    <path d="m377.92 437.47q-1.88 0-3.77-.1a4.28 4.28 0 1 1 .43-8.54 65 65 0 0 0 68.08-61.57 4.28 4.28 0 0 1 8.54.43 73.47 73.47 0 0 1 -73.29 69.78z"/>
  </g>
</svg>
